<?xml version="1.0" encoding="iso-8859-1"?>
<!-- Uploaded to: SVG Repo, www.svgrepo.com, Generator: SVG Repo Mixer Tools -->
<svg version="1.1" id="Layer_1" xmlns="http://www.w3.org/2000/svg" xmlns:xlink="http://www.w3.org/1999/xlink" 
	 viewBox="0 0 512 512" xml:space="preserve">
<g>
	<path style="fill:#3b6d57;" d="M259.997,472.001c-4.412,0-8.001-3.589-8.001-8V80.001H107.997v384.001c0,4.411-3.589,8-8.001,8v16
		h160.001V472.001z M122.621,472.001c0.887-2.504,1.376-5.195,1.376-8V96h111.999v368.001c0,2.805,0.488,5.496,1.376,8
		L122.621,472.001L122.621,472.001z"/>
	<rect x="92.001" y="495.997" style="fill:#3b6d57;" width="175.999" height="16"/>
	<rect x="148.001" y="56" style="fill:#3b6d57;" width="64.001" height="16"/>
	<path style="fill:#3b6d57;" d="M235.996,0H123.997v48h111.999V0z M219.996,32h-80.001V16h80.001V32z"/>
	<rect x="140.001" y="439.997" style="fill:#3b6d57;" width="80" height="16"/>
	<polygon style="fill:#3b6d57;" points="179.996,127.999 131.997,127.999 131.997,143.999 163.996,143.999 163.996,296 131.997,296 
		131.997,312 179.996,312 	"/>
	<path style="fill:#3b6d57;" d="M315.997,512h48.001V0h-48.001V512z M331.996,16h16.001v136h-16.001V16z M331.996,168h16.001v328
		h-16.001V168z"/>
	<rect x="371.999" y="8" style="fill:#3b6d57;" width="48" height="16"/>
	<rect x="371.999" y="32" style="fill:#3b6d57;" width="48" height="16"/>
	<rect x="371.999" y="56" style="fill:#3b6d57;" width="48" height="16"/>
	<rect x="371.999" y="80" style="fill:#3b6d57;" width="48" height="16"/>
	<rect x="371.999" y="103.999" style="fill:#3b6d57;" width="48" height="16"/>
	<rect x="371.999" y="127.999" style="fill:#3b6d57;" width="48" height="16"/>
</g>
</svg>